{
    "asset" : {
        "generator" : "Khronos glTF Blender I/O v1.8.19",
        "version" : "2.0"
    },
    "scene" : 0,
    "scenes" : [
        {
            "name" : "Scene",
            "nodes" : [
                0,
                1,
                2,
                3,
                4,
                5
            ]
        }
    ],
    "nodes" : [
        {
            "mesh" : 0,
            "name" : "Cube",
            "scale" : [
                0.18882524967193604,
                0.18882524967193604,
                0.18882524967193604
            ],
            "translation" : [
                -1.4948936700820923,
                1.1294751167297363,
                0
            ]
        },
        {
            "mesh" : 1,
            "name" : "Cylinder",
            "rotation" : [
                -0.09956570714712143,
                -0.025157572701573372,
                -0.016899768263101578,
                0.9945693612098694
            ],
            "scale" : [
                1,
                0.27198249101638794,
                1
            ],
            "translation" : [
                -0.055366430431604385,
                1.162695050239563,
                0
            ]
        },
        {
            "mesh" : 2,
            "name" : "Cube.001",
            "scale" : [
                0.18882524967193604,
                0.18882524967193604,
                0.18882524967193604
            ],
            "translation" : [
                1.2549725770950317,
                1.1294751167297363,
                0
            ]
        },
        {
            "mesh" : 3,
            "name" : "Cylinder.001",
            "rotation" : [
                0,
                0,
                -0.7071067094802856,
                0.7071068286895752
            ],
            "scale" : [
                0.5914695262908936,
                0.07758191227912903,
                0.5914695262908936
            ],
            "translation" : [
                1.5779434442520142,
                1.061189889907837,
                0
            ]
        },
        {
            "mesh" : 4,
            "name" : "Cylinder.002",
            "rotation" : [
                0,
                0,
                -0.7071067094802856,
                0.7071068286895752
            ],
            "scale" : [
                0.3232715129852295,
                0.09183266013860703,
                0.3232715129852295
            ],
            "translation" : [
                -1.2068688869476318,
                1.0893861055374146,
                0
            ]
        },
        {
            "mesh" : 5,
            "name" : "Cylinder.003",
            "rotation" : [
                0,
                0,
                -1,
                1.9470718370939721e-07
            ],
            "scale" : [
                0.1124962866306305,
                0.03195714205503464,
                0.1124962866306305
            ],
            "translation" : [
                -1.1195578575134277,
                0.32174307107925415,
                -0.3460403084754944
            ]
        }
    ],
    "animations" : [
        {
            "channels" : [
                {
                    "sampler" : 0,
                    "target" : {
                        "node" : 1,
                        "path" : "translation"
                    }
                },
                {
                    "sampler" : 1,
                    "target" : {
                        "node" : 1,
                        "path" : "rotation"
                    }
                },
                {
                    "sampler" : 2,
                    "target" : {
                        "node" : 1,
                        "path" : "scale"
                    }
                }
            ],
            "name" : "CylinderAction",
            "samplers" : [
                {
                    "input" : 23,
                    "interpolation" : "LINEAR",
                    "output" : 24
                },
                {
                    "input" : 25,
                    "interpolation" : "LINEAR",
                    "output" : 26
                },
                {
                    "input" : 23,
                    "interpolation" : "LINEAR",
                    "output" : 27
                }
            ]
        }
    ],
    "materials" : [
        {
            "doubleSided" : true,
            "name" : "Material",
            "pbrMetallicRoughness" : {
                "baseColorFactor" : [
                    0.800000011920929,
                    0.800000011920929,
                    0.800000011920929,
                    1
                ],
                "metallicFactor" : 0,
                "roughnessFactor" : 0.4000000059604645
            }
        }
    ],
    "meshes" : [
        {
            "name" : "Cube",
            "primitives" : [
                {
                    "attributes" : {
                        "POSITION" : 0,
                        "NORMAL" : 1,
                        "TEXCOORD_0" : 2
                    },
                    "indices" : 3,
                    "material" : 0
                }
            ]
        },
        {
            "name" : "Cylinder",
            "primitives" : [
                {
                    "attributes" : {
                        "POSITION" : 4,
                        "NORMAL" : 5,
                        "TEXCOORD_0" : 6
                    },
                    "indices" : 7
                }
            ]
        },
        {
            "name" : "Cube.001",
            "primitives" : [
                {
                    "attributes" : {
                        "POSITION" : 8,
                        "NORMAL" : 9,
                        "TEXCOORD_0" : 10
                    },
                    "indices" : 3,
                    "material" : 0
                }
            ]
        },
        {
            "name" : "Cylinder.001",
            "primitives" : [
                {
                    "attributes" : {
                        "POSITION" : 11,
                        "NORMAL" : 12,
                        "TEXCOORD_0" : 13
                    },
                    "indices" : 14
                }
            ]
        },
        {
            "name" : "Cylinder.002",
            "primitives" : [
                {
                    "attributes" : {
                        "POSITION" : 15,
                        "NORMAL" : 16,
                        "TEXCOORD_0" : 17
                    },
                    "indices" : 18
                }
            ]
        },
        {
            "name" : "Cylinder.003",
            "primitives" : [
                {
                    "attributes" : {
                        "POSITION" : 19,
                        "NORMAL" : 20,
                        "TEXCOORD_0" : 21
                    },
                    "indices" : 22
                }
            ]
        }
    ],
    "accessors" : [
        {
            "bufferView" : 0,
            "componentType" : 5126,
            "count" : 24,
            "max" : [
                1,
                1,
                6.514153003692627
            ],
            "min" : [
                -1,
                -14.487898826599121,
                -6.51416540145874
            ],
            "type" : "VEC3"
        },
        {
            "bufferView" : 1,
            "componentType" : 5126,
            "count" : 24,
            "type" : "VEC3"
        },
        {
            "bufferView" : 2,
            "componentType" : 5126,
            "count" : 24,
            "type" : "VEC2"
        },
        {
            "bufferView" : 3,
            "componentType" : 5123,
            "count" : 36,
            "type" : "SCALAR"
        },
        {
            "bufferView" : 4,
            "componentType" : 5126,
            "count" : 658,
            "max" : [
                1,
                4.704901218414307,
                1
            ],
            "min" : [
                -1,
                -6.598069190979004,
                -1
            ],
            "type" : "VEC3"
        },
        {
            "bufferView" : 5,
            "componentType" : 5126,
            "count" : 658,
            "type" : "VEC3"
        },
        {
            "bufferView" : 6,
            "componentType" : 5126,
            "count" : 658,
            "type" : "VEC2"
        },
        {
            "bufferView" : 7,
            "componentType" : 5123,
            "count" : 2868,
            "type" : "SCALAR"
        },
        {
            "bufferView" : 8,
            "componentType" : 5126,
            "count" : 24,
            "max" : [
                1,
                1,
                6.514153003692627
            ],
            "min" : [
                -1,
                -14.487898826599121,
                -6.51416540145874
            ],
            "type" : "VEC3"
        },
        {
            "bufferView" : 9,
            "componentType" : 5126,
            "count" : 24,
            "type" : "VEC3"
        },
        {
            "bufferView" : 10,
            "componentType" : 5126,
            "count" : 24,
            "type" : "VEC2"
        },
        {
            "bufferView" : 11,
            "componentType" : 5126,
            "count" : 704,
            "max" : [
                1.0737823247909546,
                1,
                1.0513322353363037
            ],
            "min" : [
                -1.0737823247909546,
                -1,
                -1.0513322353363037
            ],
            "type" : "VEC3"
        },
        {
            "bufferView" : 12,
            "componentType" : 5126,
            "count" : 704,
            "type" : "VEC3"
        },
        {
            "bufferView" : 13,
            "componentType" : 5126,
            "count" : 704,
            "type" : "VEC2"
        },
        {
            "bufferView" : 14,
            "componentType" : 5123,
            "count" : 1140,
            "type" : "SCALAR"
        },
        {
            "bufferView" : 15,
            "componentType" : 5126,
            "count" : 192,
            "max" : [
                1,
                1,
                1
            ],
            "min" : [
                -1,
                -1,
                -1
            ],
            "type" : "VEC3"
        },
        {
            "bufferView" : 16,
            "componentType" : 5126,
            "count" : 192,
            "type" : "VEC3"
        },
        {
            "bufferView" : 17,
            "componentType" : 5126,
            "count" : 192,
            "type" : "VEC2"
        },
        {
            "bufferView" : 18,
            "componentType" : 5123,
            "count" : 372,
            "type" : "SCALAR"
        },
        {
            "bufferView" : 19,
            "componentType" : 5126,
            "count" : 3094,
            "max" : [
                1.3378043174743652,
                26.965065002441406,
                4.313331127166748
            ],
            "min" : [
                -4.086399555206299,
                -21.81800079345703,
                -1.3378037214279175
            ],
            "type" : "VEC3"
        },
        {
            "bufferView" : 20,
            "componentType" : 5126,
            "count" : 3094,
            "type" : "VEC3"
        },
        {
            "bufferView" : 21,
            "componentType" : 5126,
            "count" : 3094,
            "type" : "VEC2"
        },
        {
            "bufferView" : 22,
            "componentType" : 5123,
            "count" : 4788,
            "type" : "SCALAR"
        },
        {
            "bufferView" : 23,
            "componentType" : 5126,
            "count" : 2,
            "max" : [
                4.166666666666667
            ],
            "min" : [
                0.041666666666666664
            ],
            "type" : "SCALAR"
        },
        {
            "bufferView" : 24,
            "componentType" : 5126,
            "count" : 2,
            "type" : "VEC3"
        },
        {
            "bufferView" : 25,
            "componentType" : 5126,
            "count" : 100,
            "max" : [
                4.166666666666667
            ],
            "min" : [
                0.041666666666666664
            ],
            "type" : "SCALAR"
        },
        {
            "bufferView" : 26,
            "componentType" : 5126,
            "count" : 100,
            "type" : "VEC4"
        },
        {
            "bufferView" : 27,
            "componentType" : 5126,
            "count" : 2,
            "type" : "VEC3"
        }
    ],
    "bufferViews" : [
        {
            "buffer" : 0,
            "byteLength" : 288,
            "byteOffset" : 0
        },
        {
            "buffer" : 0,
            "byteLength" : 288,
            "byteOffset" : 288
        },
        {
            "buffer" : 0,
            "byteLength" : 192,
            "byteOffset" : 576
        },
        {
            "buffer" : 0,
            "byteLength" : 72,
            "byteOffset" : 768
        },
        {
            "buffer" : 0,
            "byteLength" : 7896,
            "byteOffset" : 840
        },
        {
            "buffer" : 0,
            "byteLength" : 7896,
            "byteOffset" : 8736
        },
        {
            "buffer" : 0,
            "byteLength" : 5264,
            "byteOffset" : 16632
        },
        {
            "buffer" : 0,
            "byteLength" : 5736,
            "byteOffset" : 21896
        },
        {
            "buffer" : 0,
            "byteLength" : 288,
            "byteOffset" : 27632
        },
        {
            "buffer" : 0,
            "byteLength" : 288,
            "byteOffset" : 27920
        },
        {
            "buffer" : 0,
            "byteLength" : 192,
            "byteOffset" : 28208
        },
        {
            "buffer" : 0,
            "byteLength" : 8448,
            "byteOffset" : 28400
        },
        {
            "buffer" : 0,
            "byteLength" : 8448,
            "byteOffset" : 36848
        },
        {
            "buffer" : 0,
            "byteLength" : 5632,
            "byteOffset" : 45296
        },
        {
            "buffer" : 0,
            "byteLength" : 2280,
            "byteOffset" : 50928
        },
        {
            "buffer" : 0,
            "byteLength" : 2304,
            "byteOffset" : 53208
        },
        {
            "buffer" : 0,
            "byteLength" : 2304,
            "byteOffset" : 55512
        },
        {
            "buffer" : 0,
            "byteLength" : 1536,
            "byteOffset" : 57816
        },
        {
            "buffer" : 0,
            "byteLength" : 744,
            "byteOffset" : 59352
        },
        {
            "buffer" : 0,
            "byteLength" : 37128,
            "byteOffset" : 60096
        },
        {
            "buffer" : 0,
            "byteLength" : 37128,
            "byteOffset" : 97224
        },
        {
            "buffer" : 0,
            "byteLength" : 24752,
            "byteOffset" : 134352
        },
        {
            "buffer" : 0,
            "byteLength" : 9576,
            "byteOffset" : 159104
        },
        {
            "buffer" : 0,
            "byteLength" : 8,
            "byteOffset" : 168680
        },
        {
            "buffer" : 0,
            "byteLength" : 24,
            "byteOffset" : 168688
        },
        {
            "buffer" : 0,
            "byteLength" : 400,
            "byteOffset" : 168712
        },
        {
            "buffer" : 0,
            "byteLength" : 1600,
            "byteOffset" : 169112
        },
        {
            "buffer" : 0,
            "byteLength" : 24,
            "byteOffset" : 170712
        }
    ],
    "buffers" : [
        {
            "byteLength" : 170736,
            "uri" : "crucible3.bin"
        }
    ]
}
